<svg xmlns="http://www.w3.org/2000/svg" width="13" height="13" fill="none"><path fill="#000" d="M11.906 10.998c.117.117.117.305 0 .399l-.539.538c-.094.118-.281.118-.398 0L8.133 9.1a.378.378 0 0 1-.07-.211v-.305a4.935 4.935 0 0 1-3.188 1.172A4.871 4.871 0 0 1 0 4.88C0 2.209 2.18.006 4.875.006 7.547.006 9.75 2.209 9.75 4.88a4.908 4.908 0 0 1-1.195 3.187h.304c.07 0 .141.047.211.094l2.836 2.836ZM4.875 8.631a3.746 3.746 0 0 0 3.75-3.75 3.761 3.761 0 0 0-3.75-3.75 3.746 3.746 0 0 0-3.75 3.75 3.731 3.731 0 0 0 3.75 3.75Z"/></svg>